<?xml version="1.0" standalone="no"?>
<!DOCTYPE svg PUBLIC "-//W3C//DTD SVG 20010904//EN"
 "http://www.w3.org/TR/2001/REC-SVG-20010904/DTD/svg10.dtd">
<svg version="1.0" xmlns="http://www.w3.org/2000/svg"
 width="252pt" height="235pt" viewBox="0 0 252 235"
 preserveAspectRatio="xMidYMid meet">
<metadata>
Created by potrace 1.11, written by Peter Selinger 2001-2013
</metadata>
<g transform="translate(10,243) scale(0.1,-0.1),rotate(5)" fill="#000000" stroke="none">
<path d="M1095 2317 c-76 -20 -93 -33 -101 -75 -11 -57 20 -218 92 -469 35
-124 64 -245 64 -268 0 -66 -60 -112 -114 -87 -13 6 -72 79 -131 164 -246 348
-416 558 -453 558 -72 0 -322 -265 -322 -341 0 -46 146 -141 535 -349 116 -62
218 -119 228 -128 22 -20 22 -64 -1 -85 -26 -24 -72 -22 -337 13 -256 34 -423
46 -478 36 -52 -10 -70 -48 -75 -161 -5 -100 17 -242 48 -312 13 -30 26 -44
45 -49 43 -11 170 29 445 138 283 113 338 126 397 89 39 -24 50 -68 29 -109
-8 -16 -109 -115 -224 -219 -259 -237 -322 -308 -322 -366 0 -54 149 -184 281
-247 73 -34 109 -38 132 -12 24 27 67 127 132 307 116 325 159 409 234 456 58
37 99 38 133 2 41 -45 46 -61 73 -254 64 -451 98 -549 194 -549 89 0 256 76
338 155 63 61 62 64 -136 314 -143 180 -193 252 -227 324 -29 62 -30 78 -6
107 14 17 29 23 59 23 33 0 74 -21 254 -128 209 -125 386 -218 441 -231 23 -5
33 0 58 25 84 91 150 354 105 418 -9 13 -32 27 -53 32 -56 15 -233 29 -462 36
-303 10 -360 22 -360 82 0 44 61 89 275 204 233 125 359 200 434 259 46 36 51
45 51 79 0 79 -126 278 -201 316 -58 31 -72 23 -202 -107 -67 -68 -196 -200
-287 -295 -129 -134 -172 -173 -198 -178 -44 -9 -78 14 -93 64 -10 35 -6 75
36 323 30 181 48 317 49 377 l1 94 -40 14 c-56 20 -275 26 -340 10z m240
-1009 c31 -16 75 -60 91 -90 18 -35 18 -121 0 -156 -65 -125 -266 -137 -343
-20 -69 104 -23 228 103 273 41 16 112 12 149 -7z"/>
</g>
</svg>
